# xmcd CD database file
#
# Track frame offsets:
#	150
#	35782
#	46259
#	71697
#	79524
#	116382
#	139010
#	173409
#	181837
#	197570
#	218495
#	258754
#	287313
#	327614
#
# Disc length: 4589 seconds
#
# Revision: 6
# Processed by: cddbd v1.5.2PL0 Copyright (c) Steve Scherf et al.
# Submitted via: CDex 1.51
#
DISCID=b911eb0e
DTITLE=Francis Durbridge - Paul Temple und der Fall Curzon [CD3)
DYEAR=1951
DGENRE=Hörspiel
TTITLE0=Ich glaube der Inspektor hat schon...
TTITLE1=Kann ich meinen Schlüssel haben
TTITLE2=Haben Sie 'ne Ahnung wo ich Tom Doyle finde
TTITLE3=Ihr Gepäck steht unten, Sir
TTITLE4=Herrjeh, wir werden sicher kein Taxi bekommen
TTITLE5=Sie sagten der Typ war ein Ausländer
TTITLE6=Gebt doch acht, ihr Hühner
TTITLE7=Ich habe Walters getroffen
TTITLE8=Ist das ein wunderbares Auto
TTITLE9=Du scheinst nicht viel Appetit zu haben
TTITLE10=Setzen sie sich, Temple
TTITLE11=Hello, Mr Marlow, Sie hier?
TTITLE12=Hier ist verschlossen
TTITLE13=Er fährt mich besser am Platz vorbei
EXTD=YEAR: 1951
EXTT0=
EXTT1=
EXTT2=
EXTT3=
EXTT4=
EXTT5=
EXTT6=
EXTT7=
EXTT8=
EXTT9=
EXTT10=
EXTT11=
EXTT12=
EXTT13=
PLAYORDER=
